# Blender v2.80 (sub 74) OBJ File: ''
# www.blender.org
mtllib 1.mtl
o Centerline.001
v -0.006334 -0.000000 0.204308
v -0.005336 0.001000 0.204362
v 0.000000 0.001000 0.000000
v -0.001000 0.000000 -0.000026
v -0.004337 -0.000000 0.204416
v 0.001000 -0.000000 0.000026
v -0.005336 -0.001000 0.204362
v -0.000000 -0.001000 -0.000000
vt 0.004480 0.204356
vt 0.003067 0.204410
vt -0.000707 0.000013
vt 0.000707 -0.000013
vt 0.004480 0.204356
vt 0.003067 0.204410
vt -0.000707 0.000013
vt 0.000707 -0.000013
vt -0.003067 0.204437
vt -0.004481 0.204384
vt -0.000707 0.000013
vt 0.000707 -0.000013
vt -0.003067 0.204437
vt -0.004481 0.204384
vt -0.000707 0.000013
vt 0.000707 -0.000013
vn -0.9997 -0.0000 -0.0261
vn 0.0223 0.9997 -0.0084
vn 0.0000 1.0000 0.0000
vn 0.9997 -0.0000 0.0261
vn 0.0223 -0.9997 -0.0083
vn -0.0000 -1.0000 0.0000
usemtl Ground_Asphalt
s 1
f 1/1/1 2/2/2 3/3/3 4/4/1
f 2/5/2 5/6/4 6/7/4 3/8/3
f 5/9/4 7/10/5 8/11/6 6/12/4
f 7/13/5 1/14/1 4/15/1 8/16/6
