# Blender v2.80 (sub 74) OBJ File: ''
# www.blender.org
mtllib 10.mtl
o Centerline.010
v -0.399568 -0.000000 1.507560
v -0.398729 0.001000 1.508104
v -0.397890 -0.000000 1.508647
v -0.398729 -0.001000 1.508104
v -0.487893 -0.000000 1.634263
v -0.487092 0.001000 1.634862
v -0.486291 -0.000000 1.635461
v -0.487092 -0.001000 1.634862
vt 0.377121 1.619814
vt 0.375867 1.620469
vt 0.307566 1.481866
vt 0.308850 1.481272
vt -0.375883 1.620498
vt -0.377136 1.619843
vt -0.308835 1.481241
vt -0.307552 1.481835
vt -0.375883 1.620498
vt -0.377136 1.619843
vt -0.308835 1.481241
vt -0.307552 1.481835
vn -0.8203 0.0000 -0.5719
vn -0.5763 0.7038 -0.4154
vn -0.5895 0.6988 -0.4050
vn 0.5803 -0.7069 0.4045
vn 0.0282 -0.9996 0.0066
vn -0.0034 -0.9999 0.0120
usemtl Ground_Asphalt
s 1
f 5/1/1 6/2/2 2/3/3 1/4/1
f 7/5/4 8/6/5 4/7/6 3/8/4
f 8/9/5 5/10/1 1/11/1 4/12/6
