# Blender v2.80 (sub 74) OBJ File: ''
# www.blender.org
mtllib 11.mtl
o Centerline.011
v -0.398729 0.001000 1.508104
v -0.397890 -0.000000 1.508647
v -0.487893 -0.000000 1.634263
v -0.487092 0.001000 1.634862
v -0.486291 -0.000000 1.635461
v -0.487092 -0.001000 1.634862
v -0.583891 -0.000000 1.754076
v -0.583131 0.001000 1.754726
v -0.582371 -0.000000 1.755376
v -0.583131 -0.001000 1.754726
vt 0.377121 1.619814
vt 0.375867 1.620469
vt 0.307566 1.481866
vt 0.308850 1.481272
vt 0.460213 1.732132
vt 0.458998 1.732857
vt 0.383302 1.599213
vt 0.384549 1.598545
vt -0.459015 1.732885
vt -0.460229 1.732160
vt -0.384533 1.598515
vt -0.383287 1.599183
vt -0.458998 1.732857
vt -0.460229 1.732160
vt -0.384533 1.598515
vt -0.383287 1.599183
vn 0.5892 0.6988 0.4055
vn 0.5803 0.7069 0.4045
vn 0.5764 0.7035 0.4158
vn -0.7804 -0.0000 -0.6253
vn -0.5476 0.7038 -0.4525
vn -0.5610 0.6990 -0.4435
vn 0.5520 -0.7069 0.4422
vn 0.0266 -0.9996 0.0081
vn -0.0042 -0.9999 0.0114
usemtl Ground_Asphalt
s 1
f 4/1/1 5/2/2 2/3/2 1/4/3
f 7/5/4 8/6/5 4/7/6 3/8/4
f 9/9/7 10/10/8 6/11/9 5/12/7
f 10/13/8 7/14/4 3/15/4 6/16/9
