# Blender v2.80 (sub 74) OBJ File: ''
# www.blender.org
mtllib 12.mtl
o Centerline.012
v -0.487092 0.001000 1.634862
v -0.486291 -0.000000 1.635461
v -0.583891 -0.000000 1.754076
v -0.583131 0.001000 1.754726
v -0.582371 -0.000000 1.755376
v -0.583131 -0.001000 1.754726
v -0.687252 -0.000000 1.867345
v -0.686535 0.001000 1.868041
v -0.685817 -0.000000 1.868737
v -0.686535 -0.001000 1.868041
vt 0.460213 1.732132
vt 0.459015 1.732885
vt 0.383302 1.599213
vt 0.384549 1.598545
vt 0.552694 1.836202
vt 0.551522 1.836994
vt 0.468364 1.708085
vt 0.469569 1.707345
vt -0.551539 1.837019
vt -0.552711 1.836227
vt -0.469552 1.707319
vt -0.468347 1.708058
vt -0.551522 1.836994
vt -0.552711 1.836227
vt -0.469552 1.707319
vt -0.468347 1.708058
vn 0.5605 0.6992 0.4437
vn 0.5520 0.7069 0.4423
vn 0.5475 0.7036 0.4530
vn -0.7387 0.0000 -0.6741
vn -0.5176 0.7040 -0.4863
vn -0.5311 0.6993 -0.4785
vn 0.5225 -0.7068 0.4768
vn 0.0248 -0.9997 0.0092
vn -0.0047 -0.9999 0.0107
usemtl Ground_Asphalt
s 1
f 4/1/1 5/2/2 2/3/2 1/4/3
f 7/5/4 8/6/5 4/7/6 3/8/4
f 9/9/7 10/10/8 6/11/9 5/12/7
f 10/13/8 7/14/4 3/15/4 6/16/9
