# Blender v2.80 (sub 74) OBJ File: ''
# www.blender.org
mtllib 15.mtl
o Centerline.015
v -0.796994 0.001000 1.975153
v -0.796319 -0.000000 1.975891
v -0.914832 -0.000000 2.075634
v -0.914199 0.001000 2.076408
v -0.913566 -0.000000 2.077182
v -0.914199 -0.001000 2.076408
v -1.038432 -0.000000 2.171345
v -1.037840 0.001000 2.172151
v -1.037247 -0.000000 2.172956
v -1.037840 -0.001000 2.172151
vt 0.765636 2.021338
vt 0.764558 2.022254
vt 0.666468 1.902388
vt 0.667562 1.901492
vt 0.885527 2.103427
vt 0.884500 2.104398
vt 0.779065 1.988912
vt 0.780127 1.987978
vt -0.884517 2.104417
vt -0.885544 2.103446
vt -0.780109 1.987959
vt -0.779047 1.988892
vt -0.884499 2.104399
vt -0.885544 2.103446
vt -0.780109 1.987959
vt -0.779047 1.988892
vn 0.4691 0.7006 0.5376
vn 0.4623 0.7071 0.5351
vn 0.4569 0.7042 0.5435
vn -0.6123 -0.0000 -0.7907
vn -0.4279 0.7046 -0.5661
vn -0.4398 0.7007 -0.5618
vn 0.4330 -0.7070 0.5592
vn 0.0186 -0.9998 0.0107
vn -0.0053 -1.0000 0.0081
usemtl Ground_Asphalt
s 1
f 4/1/1 5/2/2 2/3/2 1/4/3
f 7/5/4 8/6/5 4/7/6 3/8/4
f 9/9/7 10/10/8 6/11/9 5/12/7
f 10/13/8 7/14/4 3/15/4 6/16/9
