# Blender v2.80 (sub 74) OBJ File: ''
# www.blender.org
mtllib 16.mtl
o Centerline.016
v -0.914199 0.001000 2.076408
v -0.913566 -0.000000 2.077182
v -1.038432 -0.000000 2.171345
v -1.037840 0.001000 2.172151
v -1.037247 -0.000000 2.172956
v -1.037840 -0.001000 2.172151
v -1.168160 -0.000000 2.261895
v -1.167606 0.001000 2.262728
v -1.167053 -0.000000 2.263561
v -1.167606 -0.001000 2.262728
vt 0.885527 2.103427
vt 0.884517 2.104417
vt 0.779065 1.988912
vt 0.780127 1.987978
vt 1.013768 2.179304
vt 1.012790 2.180326
vt 0.900175 2.069145
vt 0.901186 2.068156
vt -1.012807 2.180342
vt -1.013784 2.179320
vt -0.901169 2.068139
vt -0.900158 2.069128
vt -1.012807 2.180342
vt -1.013784 2.179320
vt -0.901169 2.068139
vt -0.900158 2.069128
vn 0.4392 0.7011 0.5618
vn 0.4330 0.7070 0.5592
vn 0.4275 0.7044 0.5667
vn -0.5724 0.0000 -0.8200
vn -0.3996 0.7049 -0.5860
vn -0.4109 0.7013 -0.5826
vn 0.4048 -0.7070 0.5800
vn 0.0167 -0.9998 0.0109
vn -0.0053 -1.0000 0.0073
usemtl Ground_Asphalt
s 1
f 4/1/1 5/2/2 2/3/2 1/4/3
f 7/5/4 8/6/5 4/7/6 3/8/4
f 9/9/7 10/10/8 6/11/9 5/12/7
f 10/13/8 7/14/4 3/15/4 6/16/9
