# Blender v2.80 (sub 74) OBJ File: ''
# www.blender.org
mtllib 17.mtl
o Centerline.017
v -1.037840 0.001000 2.172151
v -1.037247 -0.000000 2.172956
v -1.168160 -0.000000 2.261895
v -1.167606 0.001000 2.262728
v -1.167053 -0.000000 2.263561
v -1.167606 -0.001000 2.262728
v -1.303705 -0.000000 2.347628
v -1.303188 0.001000 2.348484
v -1.302671 -0.000000 2.349340
v -1.303188 -0.001000 2.348484
vt 1.013768 2.179304
vt 1.012790 2.180326
vt 0.900175 2.069145
vt 0.901186 2.068156
vt 1.149683 2.249587
vt 1.148756 2.250654
vt 1.029192 2.143691
vt 1.030151 2.142653
vt 1.149683 2.249587
vt 1.148756 2.250654
vt 1.029192 2.143691
vt 1.030151 2.142653
vt -1.148772 2.250668
vt -1.149699 2.249600
vt -1.030135 2.142637
vt -1.029175 2.143676
vt -1.148772 2.250668
vt -1.149699 2.249600
vt -1.030135 2.142637
vt -1.029175 2.143676
vn 0.1752 0.9474 0.2679
vn 0.5192 0.3161 0.7940
vn 0.4048 0.7070 0.5800
vn 0.3994 0.7045 0.5867
vn -0.5346 0.0000 -0.8451
vn 0.0147 0.9998 0.0104
vn 0.5346 -0.0000 0.8451
vn 0.0147 -0.9998 0.0104
vn -0.0053 -1.0000 0.0063
usemtl Ground_Asphalt
s 1
f 4/1/1 5/2/2 2/3/3 1/4/4
f 7/5/5 8/6/6 4/7/1 3/8/5
f 8/9/6 9/10/7 5/11/2 4/12/1
f 9/13/7 10/14/8 6/15/9 5/16/2
f 10/17/8 7/18/5 3/19/5 6/20/9
