# Blender v2.80 (sub 74) OBJ File: ''
# www.blender.org
mtllib 19.mtl
o Centerline.019
v -1.303188 0.001000 2.348484
v -1.302671 -0.000000 2.349340
v -1.444759 -0.000000 2.428890
v -1.444276 0.001000 2.429766
v -1.443793 -0.000000 2.430641
v -1.444276 -0.001000 2.429766
v -1.591011 -0.000000 2.506026
v -1.590559 0.001000 2.506918
v -1.590108 -0.000000 2.507810
v -1.590559 -0.001000 2.506918
vt 1.292582 2.314933
vt 1.291703 2.316041
vt 1.165476 2.213186
vt 1.166386 2.212103
vt 1.441800 2.376050
vt 1.440968 2.377194
vt 1.308404 2.278310
vt 1.309264 2.277188
vt 1.441800 2.376050
vt 1.440968 2.377194
vt 1.308404 2.278310
vt 1.309264 2.277188
vt -1.440982 2.377203
vt -1.441814 2.376060
vt -1.309250 2.277176
vt -1.308389 2.278299
vt -1.440982 2.377203
vt -1.441814 2.376060
vt -1.309250 2.277176
vt -1.308389 2.278299
vn 0.1525 0.9476 0.2808
vn 0.4530 0.3162 0.8336
vn 0.3531 0.7069 0.6129
vn 0.3481 0.7049 0.6181
vn -0.4665 0.0000 -0.8845
vn 0.0113 0.9999 0.0094
vn 0.4665 -0.0000 0.8845
vn 0.0112 -0.9999 0.0094
vn -0.0047 -1.0000 0.0050
usemtl Ground_Asphalt
s 1
f 4/1/1 5/2/2 2/3/3 1/4/4
f 7/5/5 8/6/6 4/7/1 3/8/5
f 8/9/6 9/10/7 5/11/2 4/12/1
f 9/13/7 10/14/8 6/15/9 5/16/2
f 10/17/8 7/18/5 3/19/5 6/20/9
