# Blender v2.80 (sub 74) OBJ File: ''
# www.blender.org
mtllib 2.mtl
o Centerline.002
v -0.006334 -0.000000 0.204308
v -0.005336 0.001000 0.204362
v -0.004337 -0.000000 0.204416
v -0.005336 -0.001000 0.204362
v -0.022131 -0.000000 0.398608
v -0.021137 0.001000 0.398719
v -0.020143 -0.000000 0.398829
v -0.021137 -0.001000 0.398719
vt 0.015672 0.398849
vt 0.014262 0.398959
vt 0.003067 0.204410
vt 0.004480 0.204356
vt 0.015672 0.398849
vt 0.014262 0.398959
vt 0.003067 0.204410
vt 0.004480 0.204356
vt -0.014264 0.398988
vt -0.015674 0.398878
vt -0.004481 0.204384
vt -0.003067 0.204437
vt -0.014264 0.398988
vt -0.015674 0.398878
vt -0.004481 0.204384
vt -0.003067 0.204437
vn -0.9967 0.0000 -0.0810
vn 0.0243 0.9997 -0.0076
vn 0.0024 1.0000 0.0097
vn 0.9967 -0.0000 0.0810
vn 0.0242 -0.9997 -0.0075
vn 0.0024 -1.0000 0.0097
usemtl Ground_Asphalt
s 1
f 5/1/1 6/2/2 2/3/3 1/4/1
f 6/5/2 7/6/4 3/7/4 2/8/3
f 7/9/4 8/10/5 4/11/6 3/12/4
f 8/13/5 5/14/1 1/15/1 4/16/6
