# Blender v2.80 (sub 74) OBJ File: ''
# www.blender.org
mtllib 5.mtl
o Centerline.005
v -0.047093 0.001000 0.583416
v -0.046107 -0.000000 0.583585
v -0.083867 -0.000000 0.758567
v -0.082894 0.001000 0.758799
v -0.081921 -0.000000 0.759030
v -0.082894 -0.001000 0.758799
v -0.129186 -0.000000 0.924919
v -0.128230 0.001000 0.925214
v -0.127275 -0.000000 0.925509
v -0.128230 -0.001000 0.925214
vt 0.059891 0.759244
vt 0.058502 0.759510
vt 0.032930 0.582313
vt 0.034334 0.582142
vt 0.092945 0.925475
vt 0.091563 0.925775
vt 0.058945 0.756407
vt 0.060339 0.756172
vt 0.092952 0.925507
vt 0.091563 0.925775
vt 0.058945 0.756407
vt 0.060339 0.756172
vt -0.091570 0.925808
vt -0.092952 0.925507
vt -0.060334 0.756140
vt -0.058940 0.756376
vt -0.091570 0.925808
vt -0.092945 0.925475
vt -0.060334 0.756140
vt -0.058940 0.756376
vn 0.3120 0.9469 0.0777
vn 0.9205 0.3162 0.2296
vn 0.6930 0.7069 0.1415
vn 0.6938 0.7039 0.1522
vn -0.9648 0.0000 -0.2629
vn 0.0289 0.9996 -0.0033
vn 0.9648 -0.0000 0.2629
vn 0.0288 -0.9996 -0.0033
vn 0.0007 -0.9999 0.0117
usemtl Ground_Asphalt
s 1
f 4/1/1 5/2/2 2/3/3 1/4/4
f 7/5/5 8/6/6 4/7/1 3/8/5
f 8/9/6 9/10/7 5/11/2 4/12/1
f 9/13/7 10/14/8 6/15/9 5/16/2
f 10/17/8 7/18/5 3/19/5 6/20/9
