# Blender v2.80 (sub 74) OBJ File: ''
# www.blender.org
mtllib 6.mtl
o Centerline.006
v -0.129186 -0.000000 0.924919
v -0.128230 0.001000 0.925214
v -0.127275 -0.000000 0.925509
v -0.128230 -0.001000 0.925214
v -0.183726 -0.000000 1.082647
v -0.182792 0.001000 1.083006
v -0.181859 -0.000000 1.083365
v -0.182792 -0.001000 1.083006
vt 0.133492 1.082507
vt 0.132127 1.082876
vt 0.092483 0.920691
vt 0.093865 0.920388
vt 0.133501 1.082540
vt 0.132127 1.082876
vt 0.092483 0.920691
vt 0.093865 0.920388
vt -0.132136 1.082909
vt -0.133501 1.082540
vt -0.093858 0.920355
vt -0.092476 0.920658
vt -0.132136 1.082909
vt -0.133492 1.082507
vt -0.093858 0.920355
vt -0.092476 0.920658
vn -0.9451 0.0000 -0.3268
vn 0.0298 0.9996 -0.0014
vn -0.0001 0.9999 0.0122
vn 0.9451 -0.0000 0.3268
vn 0.0297 -0.9996 -0.0014
vn -0.0000 -0.9999 0.0122
usemtl Ground_Asphalt
s 1
f 5/1/1 6/2/2 2/3/3 1/4/1
f 6/5/2 7/6/4 3/7/4 2/8/3
f 7/9/4 8/10/5 4/11/6 3/12/4
f 8/13/5 5/14/1 1/15/1 4/16/6
